Coordinates
version=1
nRows=21
nColumns=33
inDegrees=yes

Units are S.I. units (second, meters, Newtons, ...)
Angles are in degrees.

endheader
time	ground_thorax_rot_x	ground_thorax_rot_y	ground_thorax_rot_z	ground_thorax_tx	ground_thorax_ty	ground_thorax_tz	clav_prot_r	clav_elev_r	scapula_abduction_r	scapula_elevation_r	scapula_upward_rot_r	scapula_winging_r	shoulder_elv_r	plane_of_elev_r	axial_rot_r	elbow_flexion_r	pro_sup_r	wrist_flex_r	wrist_dev_r	clav_prot_l	clav_elev_l	scapula_abduction_l	scapula_elevation_l	scapula_upward_rot_l	scapula_winging_l	shoulder_elv_l	plane_of_elev_l	axial_rot_l	elbow_flexion_l	pro_sup_l	wrist_flex_l	wrist_dev_l
      6.66000000	     39.22159932	     13.02666461	     13.91539886	   -165.84477430	    812.58790654	      3.15016794	     15.91863381	     37.80743592	     40.62925894	     45.00000000	    -42.22472409	  -2603.35855930	  -3706.20224086	    142.23977330	    179.99999979	   1452.53971560	     50.64958828	     22.52604702	      9.58779292	      5.93638998	    -45.00000000	    -39.35604701	     45.00000000	    -33.91542288	    814.32093885	  -2254.36244032	    137.47958606	    158.15657004	    370.50001960	     17.23715245	      7.02189988	    -20.16323345
      6.67000000	     39.25039329	     13.05793111	     13.94229785	   -168.47929902	    814.20070826	      3.07439527	     15.83831414	     37.58047542	     40.67694586	     45.00000000	    -42.54171593	  -2603.58188248	  -3706.05672626	    142.23857961	    179.99999979	   1452.57981494	     50.61647601	     22.48856994	      9.41514643	      6.07867612	    -45.00000000	    -39.27686809	     45.00000000	    -34.11030164	    814.60427187	  -2254.16401234	    137.44888900	    157.97760894	    370.42626691	     16.22638578	      7.11883948	    -20.16324830
      6.68000000	     39.31009047	     12.90716671	     13.66309159	   -171.09309465	    815.81739803	      3.00568834	     15.73622486	     37.67356602	     40.59312101	     45.00000000	    -42.56457554	  -2603.67555590	  -3705.82032382	    142.21899148	    179.99999979	   1452.61534815	     50.64372735	     22.49469427	      9.33434822	      6.05517372	    -45.00000000	    -39.36610129	     45.00000000	    -33.97393620	    814.79511287	  -2253.97485479	    137.51370413	    157.90669369	    370.42162007	     15.29560110	      7.22503540	    -20.17827641
      6.69000000	     39.31573292	     12.88540903	     13.71192068	   -173.68390706	    817.43564673	      2.94293897	     15.65623361	     37.44109708	     40.61663218	     45.00000000	    -42.89643699	  -2603.88815194	  -3705.67805402	    142.18834251	    179.99999979	   1452.72731444	     50.66461406	     22.46988185	      9.13524993	      6.18460436	    -45.00000000	    -39.28203463	     45.00000000	    -34.20385094	    815.08344909	  -2253.81177665	    137.52923183	    157.66659438	    370.38047235	     14.27949928	      7.28956884	    -20.18209363
      6.70000000	     39.35193847	     12.86403219	     13.57908380	   -176.24565883	    819.05092305	      2.88569343	     15.56972695	     37.36207290	     40.55760451	     45.00000000	    -43.11198303	  -2604.07052605	  -3705.49462630	    142.20570905	    179.99999979	   1452.82678063	     50.70998432	     22.47664107	      8.99370514	      6.25018384	    -45.00000000	    -39.26569822	     45.00000000	    -34.28102138	    815.29190455	  -2253.62347094	    137.52161547	    157.49108513	    370.41712542	     13.26279179	      7.36804846	    -20.20123758
      6.71000000	     39.37612356	     12.68821695	     13.39036266	   -178.78584957	    820.66622061	      2.83355409	     15.48770033	     37.42557140	     40.46465935	     45.00000000	    -43.17998973	  -2604.15946524	  -3705.24145304	    142.14748809	    179.99999979	   1452.97345564	     50.78299248	     22.50203853	      8.89406391	      6.24950686	    -45.00000000	    -39.33075531	     45.00000000	    -34.22401338	    815.51843139	  -2253.44548550	    137.63415939	    157.35663702	    370.43781640	     12.34407662	      7.45383484	    -20.21222800
      6.72000000	     39.39987008	     12.75501221	     13.44188650	   -181.27739631	    822.26090111	      2.78700988	     15.41194772	     37.15126662	     40.48007482	     45.00000000	    -43.54186128	  -2604.38558291	  -3705.14455318	    142.16164913	    179.99999979	   1452.97722109	     50.87367240	     22.42770578	      8.64908575	      6.41137877	    -45.00000000	    -39.18121007	     45.00000000	    -34.53509464	    815.77727801	  -2253.30198602	    137.54610759	    157.03706705	    370.38991900	     11.31029588	      7.52182451	    -20.22015047
      6.73000000	     39.40817020	     12.52808887	     13.23270697	   -183.73816935	    823.84144830	      2.74516505	     15.32862107	     37.21736642	     40.37752903	     45.00000000	    -43.61252767	  -2604.43967430	  -3704.90686132	    142.08193925	    179.99999979	   1453.09913002	     50.97764020	     22.45952092	      8.56851021	      6.41269518	    -45.00000000	    -39.25099145	     45.00000000	    -34.48750131	    815.98583244	  -2253.14396306	    137.66173879	    156.90554696	    370.37915446	     10.39221250	      7.61640556	    -20.22038236
      6.74000000	     39.42243900	     12.46794449	     13.13508434	   -186.16131957	    825.39703191	      2.70740300	     15.23931641	     37.11141187	     40.33978139	     45.00000000	    -43.80082234	  -2604.61411355	  -3704.76522008	    142.08504095	    179.99999979	   1453.18831558	     51.08026683	     22.43550364	      8.39709875	      6.47182694	    -45.00000000	    -39.22541516	     45.00000000	    -34.60681784	    816.19389139	  -2252.99237525	    137.66643590	    156.67927377	    370.38397034	      9.46679832	      7.67982210	    -20.23098339
      6.75000000	     39.39648795	     12.32314677	     13.07854129	   -188.53917510	    826.91595760	      2.67285976	     15.16369462	     37.05726096	     40.29540120	     45.00000000	    -44.05700066	  -2604.71304893	  -3704.58763366	    142.01935916	    179.99999979	   1453.32346482	     51.17657984	     22.43106114	      8.25808801	      6.52672468	    -45.00000000	    -39.24999720	     45.00000000	    -34.72879588	    816.42549981	  -2252.85811480	    137.76971442	    156.47114061	    370.36767527	      8.57487317	      7.76173433	    -20.23104044
      6.76000000	     39.41259096	     12.25951012	     12.94155701	   -190.87104121	    828.39141864	      2.64083932	     15.08079545	     37.00205567	     40.22210881	     45.00000000	    -44.27078371	  -2604.85259325	  -3704.40347990	    142.00355426	    179.99999979	   1453.35949763	     51.27948107	     22.41084435	      8.13820380	      6.56841839	    -45.00000000	    -39.22708792	     45.00000000	    -34.79415097	    816.60498626	  -2252.72253033	    137.77402969	    156.28985073	    370.39444314	      7.70454267	      7.82984469	    -20.23783407
      6.77000000	     39.39551258	     12.16719061	     12.89868108	   -193.15064225	    829.81444115	      2.61109601	     15.00111938	     36.92259858	     40.16258729	     45.00000000	    -44.50497590	  -2604.96616487	  -3704.23315865	    141.96610185	    179.99999979	   1453.40903630	     51.36843124	     22.39005682	      8.01598565	      6.63265664	    -45.00000000	    -39.18051291	     45.00000000	    -34.94000477	    816.81459435	  -2252.62205436	    137.81139835	    156.06858055	    370.38070637	      6.87234366	      7.88524475	    -20.23490854
      6.78000000	     39.38513697	     12.01809253	     12.74102049	   -195.37995516	    831.18315923	      2.58354080	     14.90555097	     36.91414431	     40.09308284	     45.00000000	    -44.69753087	  -2605.05186185	  -3704.08234243	    141.94617559	    179.99999979	   1453.52193420	     51.45855756	     22.41160587	      7.92271678	      6.64179637	    -45.00000000	    -39.24223081	     45.00000000	    -35.02961564	    816.97263057	  -2252.45693586	    137.89246964	    155.87682401	    370.40105272	      6.09273383	      7.94628150	    -20.23873830
      6.79000000	     39.37563212	     11.99290397	     12.76343725	   -197.55295926	    832.49282246	      2.55799372	     14.85500901	     36.73405430	     40.04697144	     45.00000000	    -44.97677402	  -2605.21138607	  -3703.95222717	    141.90453612	    179.99999979	   1453.54889443	     51.54265434	     22.34169513	      7.74536460	      6.75397932	    -45.00000000	    -39.11771996	     45.00000000	    -35.30530357	    817.20181931	  -2252.34720201	    137.85602567	    155.58235255	    370.36948415	      5.32767235	      8.00413022	    -20.23298262
      6.80000000	     39.35991858	     11.82832699	     12.57601515	   -199.66975355	    833.74450666	      2.53333162	     14.69313085	     36.80279303	     39.95023780	     45.00000000	    -45.00000000	  -2605.28705776	  -3703.83729176	    142.00411564	    179.99999979	   1453.70304079	     51.65454201	     22.44070697	      7.70688450	      6.70383023	    -45.00000000	    -39.17469286	     45.00000000	    -35.31220881	    817.29231892	  -2252.25567679	    137.98177106	    155.49396920	    370.43002177	      4.62973707	      8.01049511	    -20.24769009
      6.81000000	     39.37202307	     11.68656789	     12.47927716	   -201.72690982	    834.93873769	      2.50793877	     14.61739946	     36.72334407	     39.82787898	     45.00000000	    -45.00000000	  -2605.35585193	  -3703.73341134	    141.95229491	    179.99999979	   1453.62789135	     51.78969171	     22.40445828	      7.60532240	      6.76135112	    -45.00000000	    -39.06391306	     45.00000000	    -35.44951908	    817.46386597	  -2252.15298565	    137.94158088	    155.22816609	    370.35998608	      4.03120424	      8.04171221	    -20.23610465
      6.82000000	     39.35339349	     11.60604242	     12.41115382	   -203.72892632	    836.08169100	      2.48004073	     14.55316826	     36.61310209	     39.70561561	     45.00000000	    -45.00000000	  -2605.42929016	  -3703.67952660	    142.01557173	    179.99999979	   1453.68159956	     51.92491411	     22.38329933	      7.46236954	      6.82940024	    -45.00000000	    -38.99835868	     45.00000000	    -35.70006002	    817.62781049	  -2252.04627905	    137.93854357	    154.93832881	    370.37211414	      3.46760463	      8.07941985	    -20.24300331
      6.83000000	     39.35191036	     11.47708216	     12.31551943	   -205.67358412	    837.17604639	      2.44887141	     14.45200784	     36.57766365	     39.57904191	     45.00000000	    -45.00000000	  -2605.47662185	  -3703.58273521	    142.05415286	    179.99999979	   1453.73372446	     52.09169907	     22.40243611	      7.37598670	      6.86700522	    -45.00000000	    -38.97038337	     45.00000000	    -35.81500553	    817.76541043	  -2251.95855914	    137.97261442	    154.76003599	    370.36337947	      2.96449373	      8.10418387	    -20.24166172
      6.84000000	     39.34396493	     11.25481367	     12.03546585	   -207.55901920	    838.22448294	      2.41505428	     14.28361169	     36.67382807	     39.44339721	     45.00000000	    -45.00000000	  -2605.51066699	  -3703.47929111	    142.10568583	    179.99999979	   1453.86174317	     52.26711208	     22.52076460	      7.36876638	      6.79675963	    -45.00000000	    -39.03198830	     45.00000000	    -35.77151559	    817.82558383	  -2251.86298830	    138.05755070	    154.69352377	    370.43708420	      2.55552015	      8.08545656	    -20.26333223
      6.85000000	     39.32909910	     11.13082428	     11.97373882	   -209.38462036	    839.22985763	      2.38076239	     14.21552310	     36.60142327	     39.31328112	     45.00000000	    -45.00000000	  -2605.56426089	  -3703.38855071	    142.11425533	    179.99999979	   1453.88415958	     52.42593328	     22.52188350	      7.27523511	      6.83994888	    -45.00000000	    -38.95324821	     45.00000000	    -35.94514449	    817.96791684	  -2251.76747972	    138.05141267	    154.45341555	    370.41260921	      2.24132538	      8.06176070	    -20.27148244
      6.86000000	     39.32233758	     11.08625508	     11.92098841	   -211.14805747	    840.19336347	      2.34928681	     14.16685685	     36.49910514	     39.16928675	     45.00000000	    -45.00000000	  -2605.62649367	  -3703.32915498	    142.17349832	    179.99999979	   1453.83628864	     52.60092297	     22.48801050	      7.18065867	      6.91968422	    -45.00000000	    -38.90411379	     45.00000000	    -36.10433190	    818.10682247	  -2251.69384149	    138.03013432	    154.25724955	    370.40586161	      1.96525302	      8.07163748	    -20.27434621
